<?xml version="1.0" encoding="UTF-8" standalone="no"?>
<svg
   viewBox="0 0 23.999999 23.999999"
   version="1.1"
   id="svg4"
   sodipodi:docname="download.svg"
   width="6.3499999mm"
   height="6.3499999mm"
   inkscape:version="1.1 (c68e22c387, 2021-05-23)"
   xmlns:inkscape="http://www.inkscape.org/namespaces/inkscape"
   xmlns:sodipodi="http://sodipodi.sourceforge.net/DTD/sodipodi-0.dtd"
   xmlns="http://www.w3.org/2000/svg"
   xmlns:svg="http://www.w3.org/2000/svg">
  <defs
     id="defs8" />
  <sodipodi:namedview
     id="namedview6"
     pagecolor="#ffffff"
     bordercolor="#666666"
     borderopacity="1.0"
     inkscape:pageshadow="2"
     inkscape:pageopacity="0.0"
     inkscape:pagecheckerboard="0"
     showgrid="false"
     units="mm"
     fit-margin-top="0"
     fit-margin-left="0"
     fit-margin-right="0"
     fit-margin-bottom="0"
     inkscape:zoom="1.7558594"
     inkscape:cx="255.71524"
     inkscape:cy="165.16129"
     inkscape:window-width="1920"
     inkscape:window-height="1011"
     inkscape:window-x="0"
     inkscape:window-y="0"
     inkscape:window-maximized="1"
     inkscape:current-layer="svg4"
     inkscape:document-units="mm" />
  <!-- Font Awesome Free 5.15.4 by @fontawesome - https://fontawesome.com License - https://fontawesome.com/license/free (Icons: CC BY 4.0, Fonts: SIL OFL 1.1, Code: MIT License) -->
  <path
     d="m 10.125,0 h 3.75 C 14.498438,0 15,0.5015625 15,1.125 V 9 h 4.110937 c 0.834375,0 1.251563,1.007813 0.660938,1.598437 l -7.129687,7.134375 c -0.351563,0.351563 -0.928125,0.351563 -1.279688,0 L 4.2234375,10.598437 C 3.6328125,10.007813 4.05,9 4.884375,9 H 9 V 1.125 C 9,0.5015625 9.5015625,0 10.125,0 Z M 24,17.625 v 5.25 C 24,23.498438 23.498438,24 22.875,24 H 1.125 C 0.5015625,24 0,23.498438 0,22.875 v -5.25 C 0,17.001562 0.5015625,16.5 1.125,16.5 h 6.8765625 l 2.2968745,2.296875 c 0.942188,0.942188 2.460938,0.942188 3.403125,0 L 15.998438,16.5 H 22.875 c 0.623438,0 1.125,0.501562 1.125,1.125 z m -5.8125,4.125 c 0,-0.515625 -0.421875,-0.9375 -0.9375,-0.9375 -0.515625,0 -0.9375,0.421875 -0.9375,0.9375 0,0.515625 0.421875,0.9375 0.9375,0.9375 0.515625,0 0.9375,-0.421875 0.9375,-0.9375 z m 3,0 c 0,-0.515625 -0.421875,-0.9375 -0.9375,-0.9375 -0.515625,0 -0.9375,0.421875 -0.9375,0.9375 0,0.515625 0.421875,0.9375 0.9375,0.9375 0.515625,0 0.9375,-0.421875 0.9375,-0.9375 z"
     id="path2"
     style="stroke-width:0.046875;fill:#b3b3b3;fill-opacity:1" />
</svg>
