<?xml version="1.0" encoding="UTF-8" standalone="no"?>
<svg
   viewBox="0 0 17.999999 17.999999"
   version="1.1"
   id="svg4"
   sodipodi:docname="download.svg"
   width="4.7624998mm"
   height="4.7624998mm"
   inkscape:version="1.1 (c68e22c387, 2021-05-23)"
   xmlns:inkscape="http://www.inkscape.org/namespaces/inkscape"
   xmlns:sodipodi="http://sodipodi.sourceforge.net/DTD/sodipodi-0.dtd"
   xmlns="http://www.w3.org/2000/svg"
   xmlns:svg="http://www.w3.org/2000/svg">
  <defs
     id="defs8" />
  <sodipodi:namedview
     id="namedview6"
     pagecolor="#ffffff"
     bordercolor="#666666"
     borderopacity="1.0"
     inkscape:pageshadow="2"
     inkscape:pageopacity="0.0"
     inkscape:pagecheckerboard="0"
     showgrid="false"
     units="mm"
     fit-margin-top="0"
     fit-margin-left="0"
     fit-margin-right="0"
     fit-margin-bottom="0"
     inkscape:zoom="1.7558594"
     inkscape:cx="255.71524"
     inkscape:cy="165.16129"
     inkscape:window-width="1920"
     inkscape:window-height="1011"
     inkscape:window-x="0"
     inkscape:window-y="0"
     inkscape:window-maximized="1"
     inkscape:current-layer="svg4"
     inkscape:document-units="mm" />
  <!-- Font Awesome Free 5.15.4 by @fontawesome - https://fontawesome.com License - https://fontawesome.com/license/free (Icons: CC BY 4.0, Fonts: SIL OFL 1.1, Code: MIT License) -->
  <path
     d="m 7.59375,0 h 2.8125 C 10.873829,0 11.25,0.37617188 11.25,0.84375 V 6.75 h 3.083203 c 0.625781,0 0.938672,0.7558598 0.495703,1.1988278 L 9.481641,13.299609 c -0.2636722,0.263672 -0.6960937,0.263672 -0.959766,0 L 3.1675781,7.9488278 C 2.7246094,7.5058598 3.0375,6.75 3.6632813,6.75 H 6.75 V 0.84375 C 6.75,0.37617188 7.1261719,0 7.59375,0 Z M 18,13.21875 v 3.9375 C 18,17.623829 17.623829,18 17.15625,18 H 0.84375 C 0.37617188,18 0,17.623829 0,17.15625 v -3.9375 C 0,12.751172 0.37617188,12.375 0.84375,12.375 h 5.1574219 l 1.7226558,1.722656 c 0.706641,0.706641 1.8457036,0.706641 2.5523443,0 L 11.998829,12.375 H 17.15625 C 17.623829,12.375 18,12.751172 18,13.21875 Z m -4.359375,3.09375 c 0,-0.386719 -0.316406,-0.703125 -0.703125,-0.703125 -0.386719,0 -0.703125,0.316406 -0.703125,0.703125 0,0.386719 0.316406,0.703125 0.703125,0.703125 0.386719,0 0.703125,-0.316406 0.703125,-0.703125 z m 2.25,0 c 0,-0.386719 -0.316406,-0.703125 -0.703125,-0.703125 -0.386719,0 -0.703125,0.316406 -0.703125,0.703125 0,0.386719 0.316406,0.703125 0.703125,0.703125 0.386719,0 0.703125,-0.316406 0.703125,-0.703125 z"
     id="path2"
     style="fill:#61996e;fill-opacity:1;stroke-width:0.0351562" />
</svg>
